<mxfile host="65bd71144e" pages="2">
    <diagram id="prtHgNgQTEPvFCAcTncT" name="ユーザー登録">
        <mxGraphModel dx="870" dy="1076" grid="1" gridSize="10" guides="1" tooltips="1" connect="1" arrows="1" fold="1" page="1" pageScale="1" pageWidth="1169" pageHeight="827" math="0" shadow="0">
            <root>
                <mxCell id="0"/>
                <mxCell id="1" parent="0"/>
                <mxCell id="dNxyNK7c78bLwvsdeMH5-19" value="Pool" style="swimlane;html=1;childLayout=stackLayout;resizeParent=1;resizeParentMax=0;horizontal=0;startSize=20;horizontalStack=0;" parent="1" vertex="1">
                    <mxGeometry x="40" y="120" width="760" height="370" as="geometry"/>
                </mxCell>
                <mxCell id="dNxyNK7c78bLwvsdeMH5-27" value="" style="edgeStyle=orthogonalEdgeStyle;rounded=0;orthogonalLoop=1;jettySize=auto;html=1;dashed=1;endArrow=none;endFill=0;" parent="dNxyNK7c78bLwvsdeMH5-19" source="dNxyNK7c78bLwvsdeMH5-24" target="dNxyNK7c78bLwvsdeMH5-26" edge="1">
                    <mxGeometry relative="1" as="geometry"/>
                </mxCell>
                <mxCell id="dNxyNK7c78bLwvsdeMH5-20" value="" style="swimlane;html=1;startSize=20;horizontal=0;" parent="dNxyNK7c78bLwvsdeMH5-19" vertex="1">
                    <mxGeometry x="20" width="740" height="120" as="geometry">
                        <mxRectangle x="20" width="740" height="40" as="alternateBounds"/>
                    </mxGeometry>
                </mxCell>
                <mxCell id="dNxyNK7c78bLwvsdeMH5-25" value="" style="edgeStyle=orthogonalEdgeStyle;rounded=0;orthogonalLoop=1;jettySize=auto;html=1;" parent="dNxyNK7c78bLwvsdeMH5-20" source="dNxyNK7c78bLwvsdeMH5-23" target="dNxyNK7c78bLwvsdeMH5-24" edge="1">
                    <mxGeometry relative="1" as="geometry"/>
                </mxCell>
                <mxCell id="dNxyNK7c78bLwvsdeMH5-23" value="" style="ellipse;whiteSpace=wrap;html=1;" parent="dNxyNK7c78bLwvsdeMH5-20" vertex="1">
                    <mxGeometry x="40" y="40" width="40" height="40" as="geometry"/>
                </mxCell>
                <mxCell id="dNxyNK7c78bLwvsdeMH5-24" value="申込書提出" style="rounded=0;whiteSpace=wrap;html=1;fontFamily=Helvetica;fontSize=12;fontColor=#000000;align=center;fillColor=#ffffff;" parent="dNxyNK7c78bLwvsdeMH5-20" vertex="1">
                    <mxGeometry x="120" y="30" width="80" height="60" as="geometry"/>
                </mxCell>
                <mxCell id="xDEcEFF_Ia5ke57R_6o9-1" value="バイヤー管理者" style="rounded=0;whiteSpace=wrap;html=1;" parent="dNxyNK7c78bLwvsdeMH5-20" vertex="1">
                    <mxGeometry width="20" height="120" as="geometry"/>
                </mxCell>
                <mxCell id="xDEcEFF_Ia5ke57R_6o9-17" value="登録成功通知" style="shape=message;html=1;whiteSpace=wrap;html=1;outlineConnect=0;" parent="dNxyNK7c78bLwvsdeMH5-20" vertex="1">
                    <mxGeometry x="660" y="50" width="60" height="30" as="geometry"/>
                </mxCell>
                <mxCell id="dNxyNK7c78bLwvsdeMH5-21" value="" style="swimlane;html=1;startSize=20;horizontal=0;" parent="dNxyNK7c78bLwvsdeMH5-19" vertex="1">
                    <mxGeometry x="20" y="120" width="740" height="130" as="geometry">
                        <mxRectangle x="20" y="120" width="740" height="40" as="alternateBounds"/>
                    </mxGeometry>
                </mxCell>
                <mxCell id="dNxyNK7c78bLwvsdeMH5-29" value="" style="edgeStyle=orthogonalEdgeStyle;rounded=0;orthogonalLoop=1;jettySize=auto;html=1;endArrow=classic;endFill=1;entryX=0;entryY=0.5;entryDx=0;entryDy=0;" parent="dNxyNK7c78bLwvsdeMH5-21" source="dNxyNK7c78bLwvsdeMH5-26" target="dNxyNK7c78bLwvsdeMH5-34" edge="1">
                    <mxGeometry relative="1" as="geometry"/>
                </mxCell>
                <mxCell id="dNxyNK7c78bLwvsdeMH5-26" value="申込書受領" style="rounded=0;whiteSpace=wrap;html=1;fontFamily=Helvetica;fontSize=12;fontColor=#000000;align=center;fillColor=#FFFFFF;" parent="dNxyNK7c78bLwvsdeMH5-21" vertex="1">
                    <mxGeometry x="120" y="30" width="80" height="60" as="geometry"/>
                </mxCell>
                <mxCell id="xDEcEFF_Ia5ke57R_6o9-2" value="サービス提供者" style="rounded=0;whiteSpace=wrap;html=1;" parent="dNxyNK7c78bLwvsdeMH5-21" vertex="1">
                    <mxGeometry width="20" height="120" as="geometry"/>
                </mxCell>
                <mxCell id="dNxyNK7c78bLwvsdeMH5-34" value="CSV&lt;br&gt;アップロード" style="rounded=0;whiteSpace=wrap;html=1;fontFamily=Helvetica;fontSize=12;fontColor=#000000;align=center;fillColor=#FFFFFF;" parent="dNxyNK7c78bLwvsdeMH5-21" vertex="1">
                    <mxGeometry x="240" y="30" width="80" height="60" as="geometry"/>
                </mxCell>
                <mxCell id="xDEcEFF_Ia5ke57R_6o9-18" value="登録成功通知" style="shape=message;html=1;whiteSpace=wrap;html=1;outlineConnect=0;" parent="dNxyNK7c78bLwvsdeMH5-21" vertex="1">
                    <mxGeometry x="660" y="45" width="60" height="30" as="geometry"/>
                </mxCell>
                <mxCell id="xDEcEFF_Ia5ke57R_6o9-15" value="登録失敗通知" style="shape=message;html=1;whiteSpace=wrap;html=1;outlineConnect=0;" parent="dNxyNK7c78bLwvsdeMH5-21" vertex="1">
                    <mxGeometry x="530" y="45" width="60" height="30" as="geometry"/>
                </mxCell>
                <mxCell id="dNxyNK7c78bLwvsdeMH5-22" value="Lane 3" style="swimlane;html=1;startSize=20;horizontal=0;" parent="dNxyNK7c78bLwvsdeMH5-19" vertex="1">
                    <mxGeometry x="20" y="250" width="740" height="120" as="geometry"/>
                </mxCell>
                <mxCell id="xDEcEFF_Ia5ke57R_6o9-3" value="本システム" style="rounded=0;whiteSpace=wrap;html=1;" parent="dNxyNK7c78bLwvsdeMH5-22" vertex="1">
                    <mxGeometry width="20" height="120" as="geometry"/>
                </mxCell>
                <mxCell id="xDEcEFF_Ia5ke57R_6o9-9" style="edgeStyle=orthogonalEdgeStyle;rounded=0;orthogonalLoop=1;jettySize=auto;html=1;exitX=1;exitY=0.5;exitDx=0;exitDy=0;entryX=0;entryY=0.5;entryDx=0;entryDy=0;" parent="dNxyNK7c78bLwvsdeMH5-22" source="xDEcEFF_Ia5ke57R_6o9-5" target="xDEcEFF_Ia5ke57R_6o9-10" edge="1">
                    <mxGeometry relative="1" as="geometry"/>
                </mxCell>
                <mxCell id="xDEcEFF_Ia5ke57R_6o9-5" value="オンライン&lt;br&gt;受付" style="rounded=0;whiteSpace=wrap;html=1;fontFamily=Helvetica;fontSize=12;fontColor=#000000;align=center;fillColor=#FFFFFF;" parent="dNxyNK7c78bLwvsdeMH5-22" vertex="1">
                    <mxGeometry x="240" y="30" width="80" height="60" as="geometry"/>
                </mxCell>
                <mxCell id="xDEcEFF_Ia5ke57R_6o9-8" value="" style="rhombus;whiteSpace=wrap;html=1;fontFamily=Helvetica;fontSize=12;fontColor=#000000;align=center;" parent="dNxyNK7c78bLwvsdeMH5-22" vertex="1">
                    <mxGeometry x="500" y="40" width="40" height="40" as="geometry"/>
                </mxCell>
                <mxCell id="xDEcEFF_Ia5ke57R_6o9-12" style="edgeStyle=orthogonalEdgeStyle;rounded=0;orthogonalLoop=1;jettySize=auto;html=1;exitX=1;exitY=0.5;exitDx=0;exitDy=0;entryX=0;entryY=0.5;entryDx=0;entryDy=0;" parent="dNxyNK7c78bLwvsdeMH5-22" source="xDEcEFF_Ia5ke57R_6o9-10" target="xDEcEFF_Ia5ke57R_6o9-8" edge="1">
                    <mxGeometry relative="1" as="geometry"/>
                </mxCell>
                <mxCell id="xDEcEFF_Ia5ke57R_6o9-10" value="ディレード&lt;br&gt;登録処理" style="rounded=0;whiteSpace=wrap;html=1;fontFamily=Helvetica;fontSize=12;fontColor=#000000;align=center;fillColor=#FFFFFF;" parent="dNxyNK7c78bLwvsdeMH5-22" vertex="1">
                    <mxGeometry x="380" y="30" width="80" height="60" as="geometry"/>
                </mxCell>
                <mxCell id="xDEcEFF_Ia5ke57R_6o9-6" style="edgeStyle=orthogonalEdgeStyle;rounded=0;orthogonalLoop=1;jettySize=auto;html=1;exitX=0.5;exitY=1;exitDx=0;exitDy=0;entryX=0.5;entryY=0;entryDx=0;entryDy=0;" parent="dNxyNK7c78bLwvsdeMH5-19" source="dNxyNK7c78bLwvsdeMH5-34" target="xDEcEFF_Ia5ke57R_6o9-5" edge="1">
                    <mxGeometry relative="1" as="geometry"/>
                </mxCell>
                <mxCell id="xDEcEFF_Ia5ke57R_6o9-19" value="登録成功" style="edgeStyle=orthogonalEdgeStyle;rounded=0;orthogonalLoop=1;jettySize=auto;html=1;exitX=1;exitY=0.5;exitDx=0;exitDy=0;entryX=0;entryY=0.5;entryDx=0;entryDy=0;" parent="dNxyNK7c78bLwvsdeMH5-19" source="xDEcEFF_Ia5ke57R_6o9-8" target="xDEcEFF_Ia5ke57R_6o9-18" edge="1">
                    <mxGeometry relative="1" as="geometry"/>
                </mxCell>
                <mxCell id="xDEcEFF_Ia5ke57R_6o9-20" style="edgeStyle=orthogonalEdgeStyle;rounded=0;orthogonalLoop=1;jettySize=auto;html=1;exitX=1;exitY=0.5;exitDx=0;exitDy=0;entryX=0;entryY=0.5;entryDx=0;entryDy=0;" parent="dNxyNK7c78bLwvsdeMH5-19" source="xDEcEFF_Ia5ke57R_6o9-8" target="xDEcEFF_Ia5ke57R_6o9-17" edge="1">
                    <mxGeometry relative="1" as="geometry"/>
                </mxCell>
                <mxCell id="xDEcEFF_Ia5ke57R_6o9-22" value="登録失敗" style="edgeStyle=orthogonalEdgeStyle;rounded=0;orthogonalLoop=1;jettySize=auto;html=1;exitX=0.5;exitY=0;exitDx=0;exitDy=0;entryX=0;entryY=0.5;entryDx=0;entryDy=0;" parent="dNxyNK7c78bLwvsdeMH5-19" source="xDEcEFF_Ia5ke57R_6o9-8" target="xDEcEFF_Ia5ke57R_6o9-15" edge="1">
                    <mxGeometry relative="1" as="geometry"/>
                </mxCell>
            </root>
        </mxGraphModel>
    </diagram>
    <diagram id="FMRJVioIOm3V9GhN1eZR" name="Page-2">
        <mxGraphModel dx="946" dy="614" grid="1" gridSize="10" guides="1" tooltips="1" connect="1" arrows="1" fold="1" page="1" pageScale="1" pageWidth="850" pageHeight="1100" math="0" shadow="0">
            <root>
                <mxCell id="0"/>
                <mxCell id="1" parent="0"/>
            </root>
        </mxGraphModel>
    </diagram>
</mxfile>